<?xml version="1.0" encoding="UTF-8" standalone="no"?>
<svg width="180" height="50" viewBox="0 0 180 50" xmlns="http://www.w3.org/2000/svg">
  <rect width="180" height="50" rx="8" fill="#FFDD00"/>
  <g transform="translate(15, 15)">
    <path d="M11.5,0 C17.8,0 23,5.2 23,11.5 C23,17.8 17.8,23 11.5,23 C5.2,23 0,17.8 0,11.5 C0,5.2 5.2,0 11.5,0 Z" fill="#FFFFFF"/>
    <path d="M11.5,3 C7.4,3 4,6.4 4,10.5 C4,14.6 7.4,18 11.5,18 C15.6,18 19,14.6 19,10.5 C19,6.4 15.6,3 11.5,3 Z M11.5,15 C9,15 7,13 7,10.5 C7,8 9,6 11.5,6 C14,6 16,8 16,10.5 C16,13 14,15 11.5,15 Z" fill="#0D0C22"/>
    <path d="M16,7 C16,7 16,5 14,5 C12,5 12,7 12,7 L16,7 Z" fill="#0D0C22"/>
  </g>
  <text x="50" y="30" font-family="Arial, sans-serif" font-size="16" font-weight="bold" fill="#000000">Buy me a coffee</text>
</svg>
